<?xml version="1.0" encoding="utf-8"?>
<!-- Generator: Adobe Illustrator 18.1.1, SVG Export Plug-In . SVG Version: 6.00 Build 0)  -->
<svg width="100px" height="162px" version="1.1" id="Layer_1" xmlns="http://www.w3.org/2000/svg" xmlns:xlink="http://www.w3.org/1999/xlink" x="0px" y="0px"
	 viewBox="0 0 696 612" enable-background="new 0 0 696 612" xml:space="preserve">
<path fill="#990000" d="M30.4,375.7V290c0-7.9,6.4-14.3,14.4-14.3h151.4l-66,114.3H44.8C36.9,390,30.4,383.6,30.4,375.7L30.4,375.7z
	 M138.3,551.2L90,583.9c-6.5,4.4-11.1,1.6-10.2-6.2l6.4-56c0.9-7.8,7.2-11,14.1-7.1l37.4,21.4C144.5,540,144.8,546.8,138.3,551.2
	L138.3,551.2z M149.9,519.6l-37.4-21.4c-6.9-3.9-9.2-12.6-5.3-19.5l173.2-300.2c3.9-6.8,12.8-9.2,19.6-5.3l37.4,21.4
	c6.8,3.9,9.2,12.7,5.2,19.5L169.6,514.4C165.6,521.2,156.8,523.5,149.9,519.6L149.9,519.6z M281.7,390l65.9-114.3h38L439.2,390
	H281.7z M496.5,424.1c-14.9-7.5-89.5-178.8-108.7-223.5C368.7,156,311,37,329.6,27.7c13.3-6.6,61,87,96.8,143.3
	c35.7,56.2,110.4,201.2,119.6,217.8c9.1,16.6-8.8,30.4-18.8,34.5C517.2,427.4,511.4,431.5,496.5,424.1L496.5,424.1z M545.5,502.8
	L523,467.4c-4.7-7.4-2.2-16.5,5.3-20.4l21.5-11c7.6-3.9,17-0.7,21.1,7l17.8,34c4,7.7,1.3,17.6-6,21.9l-15.4,9.1
	C560,512.5,550.1,510.1,545.5,502.8L545.5,502.8z M628.4,595.8c-4.7-15-40.7-16-56.7-38.6c-16.1-22.5-2.8-34.1,2.8-39.5
	C639.7,481.1,628.4,595.8,628.4,595.8L628.4,595.8z M662,375.7c0,7.9-6.4,14.3-14.4,14.3h-75.8c-0.9-4.4-2.2-8.8-4.5-12.9
	c-2-3.5-7-13-13.9-26.2c-10-19.1-24.4-46.4-39.9-75.1h134.1c7.9,0,14.4,6.4,14.4,14.3V375.7z M662,375.7"/>
</svg>
