<?xml version="1.0" encoding="utf-8"?>
<!-- Generator: Adobe Illustrator 18.1.1, SVG Export Plug-In . SVG Version: 6.00 Build 0)  -->
<svg version="1.1" id="Layer_1" xmlns="http://www.w3.org/2000/svg" xmlns:xlink="http://www.w3.org/1999/xlink" x="0px" y="0px"
	 viewBox="0 0 129 118" enable-background="new 0 0 129 118" xml:space="preserve">
<g>
	<g>
		<path fill-rule="evenodd" clip-rule="evenodd" fill="#FFFFFF" d="M90.3,67.8c0.2-0.3,0.4-0.6,0.6-0.9
			c15.1-25.1,17.4-35.9,17.6-39.5c-3.2-1-12.7-2.7-39-2.8v-3h-6v3c-26.4,0.1-35.8,1.8-39,2.8c0.3,3.5,2.5,14.3,17.7,39.5
			c0.2,0.3,0.4,0.6,0.6,0.9l-7.8,4.5c1.1,1.8,2.1,3.5,3.1,5.1l7.8-4.5c13.5,21.8,18.6,25.9,19.8,26.6h1.6c1.3-0.7,6.3-4.8,19.8-26.6
			l7.8,4.5c1-1.6,2-3.3,3.1-5.1L90.3,67.8z M66.5,64.5c-5,0-9-4-9-9c0-5,4-9,9-9c5,0,9,4,9,9C75.5,60.5,71.5,64.5,66.5,64.5z"/>
	</g>
</g>
</svg>
