<?xml version="1.0" encoding="utf-8"?>
<!-- Generator: Adobe Illustrator 18.1.1, SVG Export Plug-In . SVG Version: 6.00 Build 0)  -->
<svg width="100px" height="162px" version="1.1" id="Layer_1" xmlns="http://www.w3.org/2000/svg" xmlns:xlink="http://www.w3.org/1999/xlink" x="0px" y="0px"
	 viewBox="0 0 541 612" enable-background="new 0 0 541 612" xml:space="preserve">
<g id="PLAY">
	<defs>
		<path id="SVGID_1_" d="M390.3,232.6l-109.6-63.2c0,0-199.6-115.2-211.3-122C57.7,40.6,46,44.7,46,58.8c0,23.6,0,246.1,0,246.1
			s0,240.4,0,251s8.4,15.2,18.5,9.3c10.2-5.9,216.2-124.8,216.2-124.8l109.5-63.2c0,0,92.9-53.7,105.3-60.8
			c12.4-7.1,11.2-16.9,0.7-22.5S390.3,232.6,390.3,232.6z"/>
	</defs>
	<clipPath id="SVGID_2_">
		<use xlink:href="#SVGID_1_"  overflow="visible"/>
	</clipPath>
	<polygon clip-path="url(#SVGID_2_)" fill="none" stroke="#A31E22" stroke-width="27" stroke-miterlimit="10" points="46,35.8 
		46,304.9 46,574 317.4,304.9 	"/>
	<polygon clip-path="url(#SVGID_2_)" fill="none" stroke="#A31E22" stroke-width="27" stroke-miterlimit="10" points="390.3,232.6 
		280.7,169.4 46,33.8 46,35.8 317.4,304.9 	"/>
	<polygon clip-path="url(#SVGID_2_)" fill="none" stroke="#A31E22" stroke-width="27" stroke-miterlimit="10" points="46,574 
		46,575.9 280.7,440.4 390.3,377.2 317.4,304.9 	"/>
	<polygon clip-path="url(#SVGID_2_)" fill="none" stroke="#A31E22" stroke-width="27" stroke-miterlimit="10" points="390.3,232.6 
		317.4,304.9 390.3,377.2 515.5,304.9 	"/>
	<use xlink:href="#SVGID_1_"  overflow="visible" fill="none" stroke="#A31E22" stroke-width="27" stroke-miterlimit="10"/>
</g>
</svg>
