<?xml version="1.0" encoding="utf-8"?>
<!-- Generator: Adobe Illustrator 18.1.1, SVG Export Plug-In . SVG Version: 6.00 Build 0)  -->
<svg version="1.1" id="Layer_1" xmlns="http://www.w3.org/2000/svg" xmlns:xlink="http://www.w3.org/1999/xlink" x="0px" y="0px"
	 width="165.5px" height="162px" viewBox="0 0 165.5 162" enable-background="new 0 0 165.5 162" xml:space="preserve">
<path fill-rule="evenodd" clip-rule="evenodd" fill="#FFFFFF" d="M130.9,104.7c0,0,1.2-2.5,0.6-4.8c-0.6-2.3-1.3-5.1-2.4-7.1
	c-1.1-2-3-5.4-4.2-3.6c-1.2,1.8-3.1,5.1-2.8,5.9c0.4,0.8,0.3,1.5-0.3,2.1c-0.6,0.5-1,2.7-1,2.7L130.9,104.7z"/>
<path fill-rule="evenodd" clip-rule="evenodd" fill="#FFFFFF" d="M121.4,155.3c-0.8,0.4-1.7-0.3-6.1-3.7c-1.5-1.2-5.5-3.6-16.2-10.3
	c-2.1-1.3-7.4-6.5-9.7-7.9c-19.7-12.2-45.6-27.2-59.8-35.2c-24.2-13.6-23.1-13-23.1-13s0.6-1.6,0.2-6.6c-0.4-5-1.8-12,1.9-25.8
	c3.6-13.8,10.2-24.3,10.2-24.3S32.2,9,54.3,7.4c22.1-1.6,27.5-0.9,40.6,3.8c13.1,4.7,25.3,14,34.1,25.6c8.8,11.6,9.8,24.3,8.4,26.3
	c-1.4,2.1-1.9,2.9-7.6,4.7c-5.7,1.9-29.5,10.3-29.5,10.3s0.7,3.8,1.3,5c0.6,1.2,21.7,14.2,26.9,18.8c5.2,4.6,6,6.5,6.7,8.6
	c0.7,2.1,0.2,2.2,0.2,2.2l0.8,0.4c0,0,0.3,6.6-4.4,18.4c-4.7,11.8-8.2,18.5-8.2,18.5S122.2,154.9,121.4,155.3z"/>
<path fill-rule="evenodd" clip-rule="evenodd" fill="#FFFFFF" d="M156.6,51.8c0.5,2.1-3.4,3.3-7.9,5.3c-4.4,2.1-15,6.5-15,6.5
	s1.5-1.5,2.7-2.9c1.3-1.6,0.7-2.4,0.7-2.4s-18.6,5.7-23.2,6.3c-4.6,0.6-9.2-3.3-16.3-5.6c-10.2-3.3-16.9-1.3-17.7-3
	c-2.5-5.1,0.9-7.7,0.2-10.4c-1.1-4.2-6.1-4.6,8.4-11s33.1-16.1,36-14.1C127.4,22.4,156,49.8,156.6,51.8z"/>
<path fill-rule="evenodd" clip-rule="evenodd" fill="#FFFFFF" d="M87.9,35.7c5.3,3.1,7.1,9.9,4,15.3c-3.1,5.4-9.9,7.3-15.2,4.2
	c-5.3-3.1-7.1-9.9-4-15.3C75.8,34.6,82.6,32.7,87.9,35.7z"/>
<path fill-rule="evenodd" clip-rule="evenodd" fill="#FFFFFF" d="M121.4,150.1c0,0-15.3-36.6-39.3-69.6
	c-23.9-33-45.8-57.7-45.8-57.7L21,31.7c0,0,27.5,17.6,55.4,54.6C104.4,123.3,121.4,150.1,121.4,150.1z"/>
<path fill-rule="evenodd" clip-rule="evenodd" fill="#FFFFFF" d="M87.3,8.6c0,0.4-6.8-1.3-12.6-1.5C68.9,7,57.1,7.4,48.6,10.6
	c-8.5,3.1-10.6,3.9-10.3,8.3c0.4,4.4,1.1,11,0.3,11.7c-0.9,0.8-7.2,0.8-16.1,4.2s-9.3,6.9-10.2,6.6c-0.9-0.3,2-8,4.4-20.1
	c2.4-12.1,1.8-14.6,2.4-15c0.6-0.3,6.2,3.5,20.8,1.5c14.6-2,22.6-2.6,31.4-2.3C80.2,5.8,87.2,8.2,87.3,8.6z"/>
</svg>
