<?xml version="1.0" encoding="utf-8"?>
<!-- Generator: Adobe Illustrator 18.1.1, SVG Export Plug-In . SVG Version: 6.00 Build 0)  -->
<svg version="1.1" id="Layer_1" xmlns="http://www.w3.org/2000/svg" xmlns:xlink="http://www.w3.org/1999/xlink" x="0px" y="0px"
	 width="167.5px" height="31px" viewBox="0 0 167.5 31" enable-background="new 0 0 167.5 31" xml:space="preserve">
<g>
	<path fill="#FFFFFF" d="M23.8,4.3c3.1,0,6,2.6,6,6.2v1l-0.4,0h-3l-0.4,0v-1.1c0-1.2-1-2.2-2.1-2.2H10.6c-1.3,0-1.9,1.1-1.9,2.1
		c0,1,0,2.7,2.1,2.8l13.5,0.3c3.2,0.1,5.8,3.3,5.8,7c0,3.5-2.9,6-6.2,6H10.8c-3.1,0-6.2-2.5-6.2-5.9v-1.3l0.4,0h3l0.4,0l0,1.3
		c0.1,1.2,1,2.1,2.2,2.1h13.1c1.3,0,2.3-0.9,2.3-2.2c0-1.3-0.1-3-2.1-3.1l-13.5-0.3c-3.5-0.1-5.8-3.5-5.8-6.8c0-3.4,2.6-5.8,5.8-5.8
		H23.8z"/>
	<path fill="#FFFFFF" d="M58.7,26.3h-1.2h-5h-0.5L39,18L37,19.4v6.9h-0.4h-2.8h-0.4v-22h0.4h2.8H37v10.6L51.1,4.3h0.7h4.9h1.1
		L42.9,15.6L58.7,26.3z"/>
	<path fill="#FFFFFF" d="M85.7,4.3h0.4v15.3c0,3.8-2.6,6.8-6.4,6.8H67.2c-3.8,0-6.4-2.9-6.4-6.8V4.3h0.4h3h0.4l0,14.5
		c0,1.5,0.3,3.5,2.5,3.5h12.6c2.2,0,2.5-2,2.5-3.5l0-14.5h0.4H85.7z"/>
	<path fill="#FFFFFF" d="M114.3,22.3l0.5,0v4h-0.5H90h-0.5v-22H90h3.5H94l0,18H114.3z"/>
	<path fill="#FFFFFF" d="M144.4,22.3v0.5v3.6h-0.5h-24.4H119v-22h0.5h3.5h0.5l0,18L144.4,22.3z"/>
	<path fill="#FFFFFF" d="M162,4.3h0.6l-10.9,14l0,8h-0.4h-2.7h-0.4l0-8l-10.9-14h0.6h3.6h0.3l8.2,10.3l8.2-10.3h0.3H162z"/>
</g>
</svg>
