<?xml version="1.0" encoding="utf-8"?>
<!-- Generator: Adobe Illustrator 18.1.1, SVG Export Plug-In . SVG Version: 6.00 Build 0)  -->
<svg version="1.1" xmlns="http://www.w3.org/2000/svg" xmlns:xlink="http://www.w3.org/1999/xlink" x="0px" y="0px"
	 viewBox="0 0 284 288" enable-background="new 0 0 284 288" xml:space="preserve">
<g id="Layer_1">
	<path fill-rule="evenodd" clip-rule="evenodd" fill="none" d="M143.6,35c59.6,0,108,48.4,108,108c0,59.6-48.4,108-108,108
		s-108-48.4-108-108C35.6,83.4,84,35,143.6,35z"/>
	<path fill-rule="evenodd" clip-rule="evenodd" fill="none" stroke="#CFCFCF" stroke-width="15" stroke-miterlimit="10" d="
		M143.6,48.1c52.4,0,94.9,42.5,94.9,94.9c0,52.4-42.5,94.9-94.9,94.9S48.7,195.4,48.7,143C48.7,90.6,91.2,48.1,143.6,48.1z"/>
	<path fill-rule="evenodd" clip-rule="evenodd" fill="#CFCFCF" d="M151,143v49.1h-20.3V143h-9.9v-16.6h9.9v-13.5
		c0-2.4-0.5-19,20.8-19h15.1v17.2h-11.1c-2.2,0-4.4,2.3-4.4,3.9v11.3h15.5c-0.6,8.7-1.9,16.6-1.9,16.6H151z"/>
</g>
<g id="Layer_2">
</g>
</svg>
