<?xml version="1.0" encoding="utf-8"?>
<!-- Generator: Adobe Illustrator 18.1.1, SVG Export Plug-In . SVG Version: 6.00 Build 0)  -->
<svg version="1.1" xmlns="http://www.w3.org/2000/svg" xmlns:xlink="http://www.w3.org/1999/xlink" x="0px" y="0px"
	 viewBox="0 0 289 288" enable-background="new 0 0 289 288" xml:space="preserve">
<g id="Layer_1">
	<path fill-rule="evenodd" clip-rule="evenodd" fill="none" d="M143.7,36.1c59.8,0,108.2,48.4,108.2,108.2
		c0,59.8-48.4,108.2-108.2,108.2S35.5,204.1,35.5,144.3C35.5,84.5,83.9,36.1,143.7,36.1z"/>
	<path fill-rule="evenodd" clip-rule="evenodd" fill="none" stroke="#CFCFCF" stroke-width="15" stroke-miterlimit="10" d="
		M143.7,49.2c52.5,0,95.1,42.6,95.1,95.1c0,52.5-42.6,95.1-95.1,95.1s-95.1-42.6-95.1-95.1C48.6,91.8,91.2,49.2,143.7,49.2z"/>
	<path fill-rule="evenodd" clip-rule="evenodd" fill="#CFCFCF" d="M104.8,95.1c-5.7,0-10.3,4.6-10.3,10.3v77.7
		c0,5.7,4.6,10.3,10.3,10.3h77.7c5.7,0,10.3-4.6,10.3-10.3v-77.7c0-5.7-4.6-10.3-10.3-10.3H104.8z M143.8,126
		c10.1,0,18.3,8.2,18.3,18.3c0,10.1-8.2,18.3-18.3,18.3c-10.1,0-18.3-8.2-18.3-18.3C125.5,134.2,133.7,126,143.8,126z M179.7,177.1
		c0,2.3-1.6,3.3-4.2,3.3h-63.8c-2.5,0-4.2-1-4.2-3.3c0-2.3,0-40,0-40h7.8c-0.5,2.2-0.8,4.5-0.8,6.9c0,16.1,13,29.2,29.1,29.2
		c16.1,0,29.1-13.1,29.1-29.2c0-2.4-0.3-4.7-0.8-6.9h7.7C179.7,137.1,179.7,174.7,179.7,177.1z M179.8,123.2c0,1.9-1.5,3.4-3.4,3.4
		h-11.7c-1.9,0-3.4-1.5-3.4-3.4v-11.7c0-1.9,1.5-3.4,3.4-3.4h11.7c1.9,0,3.4,1.5,3.4,3.4V123.2z"/>
</g>
<g id="Layer_2">
</g>
</svg>
