<?xml version="1.0" encoding="utf-8"?>
<!-- Generator: Adobe Illustrator 18.1.1, SVG Export Plug-In . SVG Version: 6.00 Build 0)  -->
<svg version="1.1" xmlns="http://www.w3.org/2000/svg" xmlns:xlink="http://www.w3.org/1999/xlink" x="0px" y="0px"
	 viewBox="0 0 288 290" enable-background="new 0 0 288 290" xml:space="preserve">
<g id="Layer_1">
	<path fill-rule="evenodd" clip-rule="evenodd" fill="none" d="M144.5,35C204.4,35,253,83.6,253,143.5
		c0,59.9-48.6,108.5-108.5,108.5S36,203.4,36,143.5C36,83.6,84.6,35,144.5,35z"/>
	<path fill-rule="evenodd" clip-rule="evenodd" fill="none" stroke="#CFCFCF" stroke-width="15" stroke-miterlimit="10" d="
		M144.5,48.2c52.7,0,95.3,42.7,95.3,95.3c0,52.7-42.7,95.3-95.3,95.3s-95.3-42.7-95.3-95.3C49.2,90.8,91.9,48.2,144.5,48.2z"/>
	<path fill-rule="evenodd" clip-rule="evenodd" fill="#CFCFCF" d="M186.6,192.8h-84.1c-4,0-7.3-3.2-7.3-7.1v-84.6
		c0-3.9,3.3-7.1,7.3-7.1h84.1c4,0,7.3,3.2,7.3,7.1v84.6C193.8,189.6,190.6,192.8,186.6,192.8z M108.3,179.6h15.5v-46.1h-15.5V179.6z
		 M116.1,107.4c-4.7,0-7.7,3.5-7.7,8.1c0,4.5,3,8.1,7.6,8.1h0.1c4.8,0,7.7-3.6,7.7-8.1C123.6,110.9,120.8,107.4,116.1,107.4z
		 M180.7,150.1c0-15.8-7.5-23.1-17.4-23.1c-8,0-11.6,5-13.6,8.5v-7.3h-15.1c0.2,4.8,0,51.4,0,51.4h15.1v-28.7c0-1.5,0.1-3.1,0.5-4.2
		c1.1-3.1,3.6-6.2,7.7-6.2c5.5,0,7.6,4.7,7.6,11.6v27.5h15.1V150.1z M149.6,135.7c0,0,0.1-0.1,0.1-0.1L149.6,135.7L149.6,135.7z"/>
</g>
<g id="Layer_2">
</g>
</svg>
