<?xml version="1.0" encoding="utf-8"?>
<!-- Generator: Adobe Illustrator 18.1.1, SVG Export Plug-In . SVG Version: 6.00 Build 0)  -->
<svg version="1.1" xmlns="http://www.w3.org/2000/svg" xmlns:xlink="http://www.w3.org/1999/xlink" x="0px" y="0px"
	 viewBox="0 0 288 290" enable-background="new 0 0 288 290" xml:space="preserve">
<g id="Layer_1">
	<path fill-rule="evenodd" clip-rule="evenodd" fill="none" d="M144.7,36.2c60.2,0,109,48.8,109,109c0,60.2-48.8,109-109,109
		s-109-48.8-109-109C35.7,85,84.5,36.2,144.7,36.2z"/>
	<path fill-rule="evenodd" clip-rule="evenodd" fill="none" stroke="#CFCFCF" stroke-width="15" stroke-miterlimit="10" d="
		M144.7,49.4c52.9,0,95.8,42.9,95.8,95.8c0,52.9-42.9,95.8-95.8,95.8s-95.8-42.9-95.8-95.8C48.9,92.3,91.8,49.4,144.7,49.4z"/>
	<path fill-rule="evenodd" clip-rule="evenodd" fill="#CFCFCF" d="M200.9,112.5c-3.9,1.7-8.1,2.9-12.5,3.4c4.5-2.7,7.9-6.9,9.5-12
		c-4.2,2.5-8.8,4.3-13.8,5.3c-4-4.2-9.6-6.8-15.8-6.8c-12,0-21.7,9.7-21.7,21.6c0,1.7,0.2,3.4,0.6,4.9c-18-0.9-34-9.5-44.7-22.6
		c-1.9,3.2-2.9,6.9-2.9,10.9c0,7.5,3.8,14.1,9.6,18c-3.6-0.1-6.9-1.1-9.8-2.7c0,0.1,0,0.2,0,0.3c0,10.5,7.5,19.2,17.4,21.2
		c-1.8,0.5-3.7,0.8-5.7,0.8c-1.4,0-2.8-0.1-4.1-0.4c2.8,8.6,10.8,14.9,20.2,15c-7.4,5.8-16.8,9.3-26.9,9.3c-1.7,0-3.5-0.1-5.2-0.3
		c9.6,6.2,21,9.7,33.2,9.7c39.9,0,61.6-33,61.6-61.6c0-0.9,0-1.9-0.1-2.8C194.3,120.6,197.9,116.8,200.9,112.5z"/>
</g>
<g id="Layer_2">
</g>
</svg>
