<?xml version="1.0" encoding="utf-8"?>
<!-- Generator: Adobe Illustrator 18.1.1, SVG Export Plug-In . SVG Version: 6.00 Build 0)  -->
<svg version="1.1" xmlns="http://www.w3.org/2000/svg" xmlns:xlink="http://www.w3.org/1999/xlink" x="0px" y="0px"
	 viewBox="0 0 287 290" enable-background="new 0 0 287 290" xml:space="preserve">
<g id="Layer_1">
	<path fill-rule="evenodd" clip-rule="evenodd" fill="none" d="M145,38c59.4,0,107.5,48.1,107.5,107.5
		c0,59.4-48.1,107.5-107.5,107.5S37.5,204.9,37.5,145.5C37.5,86.1,85.6,38,145,38z"/>
	<path fill-rule="evenodd" clip-rule="evenodd" fill="none" stroke="#CFCFCF" stroke-width="15" stroke-miterlimit="10" d="M145,51
		c52.2,0,94.5,42.3,94.5,94.5c0,52.2-42.3,94.5-94.5,94.5s-94.5-42.3-94.5-94.5C50.5,93.3,92.8,51,145,51z"/>
	<path fill-rule="evenodd" clip-rule="evenodd" fill="#CFCFCF" d="M182.9,103.8c0,0-27.1-0.7-37.9-0.7h-0.3
		c-10.8,0-37.9,0.7-37.9,0.7c-9,0.7-15,7.6-16.2,17.7c0,0-1.2,13-1.2,23.7c0,10.6,1.2,23.7,1.2,23.7c0.9,10.1,6.6,17,16.2,17.7
		c0,0,22,1.3,37.9,1.3h0.3c15.8,0,37.9-1.3,37.9-1.3c9.6-0.7,15.2-7.6,16.2-17.7c0,0,1.2-13,1.2-23.7c0-10.6-1.2-23.7-1.2-23.7
		C198,111.4,192,104.5,182.9,103.8z M163.7,147.5l-28.6,14.3v-32.6l2,1l30.6,15.3L163.7,147.5z"/>
</g>
<g id="Layer_2">
</g>
</svg>
